<?xml version="1.0" ?>
<svg width="24" height="20" xmlns="http://www.w3.org/2000/svg" data-name="Livello 1">
  <path fill="#c8daea" d="M5.853 11.38l2.635 7.294s.33.683.682.683 5.6-5.459 5.6-5.459l5.835-11.27-14.658 6.87-.094 1.883z"/>
  <path fill="#a9c6d8" d="M9.347 13.251l-.506 5.376s-.212 1.648 1.435 0 3.223-2.917 3.223-2.917"/>
  <path fill="#fff" d="M5.9 11.641L.48 9.875s-.648-.263-.44-.859c.043-.123.13-.227.39-.407C1.63 7.772 22.66.213 22.66.213s.593-.2.943-.067a.512.512 0 01.35.38 1.732 1.732 0 01.046.48c-.001.138-.018.267-.03.47-.129 2.066-3.962 17.49-3.962 17.49s-.23.902-1.05.933a1.505 1.505 0 01-1.097-.425c-1.613-1.386-7.185-5.132-8.417-5.955a.235.235 0 01-.1-.167c-.018-.087.076-.194.076-.194s9.704-8.625 9.962-9.53c.02-.07-.055-.106-.157-.075-.644.237-11.817 7.293-13.05 8.071a.594.594 0 01-.274.017z"/>
</svg>