<svg width="34" height="20" viewBox="0 0 34 20" fill="none" xmlns="http://www.w3.org/2000/svg">
  <path stroke="null" d="M32.868 1.461c.231-.772 0-1.338-1.1-1.338H28.13c-.926 0-1.353.489-1.583 1.03 0 0-1.851 4.51-4.473 7.44-.848.847-1.233 1.119-1.697 1.119-.23 0-.565-.272-.565-1.042V1.46c0-.925-.269-1.337-1.04-1.337h-5.719c-.578 0-.925.43-.925.836 0 .878 1.31 1.08 1.445 3.547v5.36c0 1.174-.212 1.388-.675 1.388-1.233 0-4.233-4.53-6.013-9.716C6.535.53 6.185.123 5.255.123H1.617C.577.123.37.612.37 1.153c0 .963 1.234 5.743 5.744 12.066 3.007 4.317 7.244 6.658 11.1 6.658 2.313 0 2.598-.52 2.598-1.415v-3.264c0-1.04.22-1.249.953-1.249.539 0 1.463.27 3.623 2.353 2.467 2.466 2.873 3.573 4.261 3.573h3.64c1.04 0 1.559-.52 1.259-1.545-.328-1.022-1.507-2.507-3.07-4.264-.847-1.002-2.12-2.082-2.506-2.622-.539-.694-.385-1.002 0-1.62 0 0 4.434-6.244 4.897-8.364" fill="white" fill-rule="evenodd"/>
</svg>
